<?xml version="1.0" encoding="UTF-8" standalone="no"?>
<svg width="44px" height="44px" viewBox="0 0 44 44" version="1.1" xmlns="http://www.w3.org/2000/svg" xmlns:xlink="http://www.w3.org/1999/xlink" xmlns:sketch="http://www.bohemiancoding.com/sketch/ns">
    <g id="Page-1" stroke="none" stroke-width="1" fill="none" fill-rule="evenodd" sketch:type="MSPage">
        <g id="Create-Event-" sketch:type="MSArtboardGroup" transform="translate(-1059.000000, -237.000000)">
            <rect id="Rectangle-4" fill="#F1F1F2" sketch:type="MSShapeGroup" x="0" y="80" width="1603" height="944"></rect>
            <rect id="Rectangle-4-Copy" fill="#FFFFFF" sketch:type="MSShapeGroup" x="1030" y="100" width="350" height="646" rx="4"></rect>
            <g id="icon_ticketing_hover" sketch:type="MSLayerGroup" transform="translate(1060.000000, 238.000000)" stroke-width="1.3">
                <g id="Group" sketch:type="MSShapeGroup">
                    <path d="M37.8,21 L34.7142857,18.2571429" id="Shape" stroke="#FFFFFF"></path>
                    <path d="M3.34285714,18.2571429 L6.42857143,21" id="Shape" stroke="#FFFFFF"></path>
                    <path d="M37.8,21 L15,0.685714286 C14.1428571,-0.0857142857 12.7714286,-1.29063427e-14 12.0857143,0.857142857 L10.1142857,3.08571429 C12.3428571,5.05714286 12.5142857,8.57142857 10.5428571,10.7142857 C8.57142857,12.9428571 5.05714286,13.1142857 2.91428571,11.1428571 L0.942857143,13.3714286 C0.171428571,14.2285714 0.257142857,15.6 1.11428571,16.2857143 L6.51428571,21.0857143" id="Shape" stroke="#CCCBCC"></path>
                    <path d="M24.6857143,18.2571429 L27.6857143,21" id="Shape" stroke="#CCCBCC"></path>
                    <path d="M15.2571429,9.85714286 L24.6857143,18.2571429" id="Shape" stroke="#CCCBCC"></path>
                    <path d="M29.0571429,18.2571429 L32.1428571,21" id="Shape" stroke="#CCCBCC"></path>
                    <path d="M17.2285714,7.62857143 L29.0571429,18.2571429" id="Shape" stroke="#CCCBCC"></path>
                </g>
                <path d="M16.2,19.9714286 C16.2,17.8885261 14.5114739,16.2 12.4285714,16.2 C10.3456689,16.2 8.65714286,17.8885261 8.65714286,19.9714286 C8.65714286,22.0543311 16.2,22.0543311 16.2,19.9714286 Z" id="Oval" stroke="#CCCBCC" sketch:type="MSShapeGroup"></path>
                <path d="M6.42857143,21 L2.31428571,21 C1.11428571,21 0.257142857,21.9428571 0.257142857,23.0571429 L0.257142857,25.9714286 C3.25714286,25.9714286 5.74285714,28.3714286 5.74285714,31.4571429 C5.74285714,34.4571429 3.34285714,36.9428571 0.257142857,36.9428571 L0.257142857,39.8571429 C0.257142857,41.0571429 1.2,41.9142857 2.31428571,41.9142857 L39.9428571,41.9142857 C41.1428571,41.9142857 42,40.9714286 42,39.8571429 L42,36.8571429 C39,36.8571429 36.5142857,34.4571429 36.5142857,31.3714286 C36.5142857,28.3714286 38.9142857,25.8857143 42,25.8857143 L42,22.9714286 C42,21.7714286 41.0571429,20.9142857 39.9428571,20.9142857 L32.0571429,20.9142857" id="Shape" stroke="#9B9B9B" sketch:type="MSShapeGroup"></path>
                <path d="M11.6571429,21 L6.42857143,21" id="Shape" stroke="#9B9B9B" sketch:type="MSShapeGroup"></path>
                <path d="M14.9142857,21 L11.6571429,21" id="Shape" stroke="#9B9B9B" sketch:type="MSShapeGroup"></path>
                <path d="M27.6857143,21 L14.9142857,21" id="Shape" stroke="#9B9B9B" sketch:type="MSShapeGroup"></path>
                <path d="M32.1428571,21 L27.6857143,21" id="Shape" stroke="#9B9B9B" sketch:type="MSShapeGroup"></path>
                <circle id="Oval" stroke="#9B9B9B" sketch:type="MSShapeGroup" cx="12.4285714" cy="34.8" r="3.77142857"></circle>
                <path d="M8.65714286,27.6857143 L33.2571429,27.6857143" id="Shape" stroke="#9B9B9B" sketch:type="MSShapeGroup"></path>
                <path d="M8.65714286,24.7714286 L33.2571429,24.7714286" id="Shape" stroke="#9B9B9B" sketch:type="MSShapeGroup"></path>
                <path d="M21.6,31.4571429 L21.6,37.2857143" id="Shape" stroke="#9B9B9B" sketch:type="MSShapeGroup"></path>
                <path d="M26.5714286,31.4571429 L26.5714286,37.2857143" id="Shape" stroke="#9B9B9B" sketch:type="MSShapeGroup"></path>
                <path d="M31.6285714,31.4571429 L31.6285714,37.2857143" id="Shape" stroke="#9B9B9B" sketch:type="MSShapeGroup"></path>
            </g>
        </g>
    </g>
</svg>